# xmcd CD database file
#
# Track frame offsets:
#	150
#	36274
#	77061
#	115666
#	155742
#	189412
#	216891
#	244626
#
# Disc length: 3380 seconds
#
# Revision: 1
# Processed by: cddbd v1.5.2PL0 Copyright (c) Steve Scherf et al.
# Submitted via: CDex 1.51
#
DISCID=640d3208
DTITLE=Rez Abbasi - Snake Charmer
DYEAR=2005
DGENRE=Jazz
TTITLE0=Snake Charmer
TTITLE1=Pearl
TTITLE2=Tantra
TTITLE3=Motherland
TTITLE4=Kismet
TTITLE5=Rumi
TTITLE6=Blood Orange
TTITLE7=Thanks for Nothing
EXTD=YEAR: 2005
EXTT0=
EXTT1=
EXTT2=
EXTT3=
EXTT4=
EXTT5=
EXTT6=
EXTT7=
PLAYORDER=
